<mxfile host="app.diagrams.net" modified="2023-06-30T01:50:17.800Z" agent="Mozilla/5.0 (Windows NT 10.0; Win64; x64) AppleWebKit/537.36 (KHTML, like Gecko) Chrome/114.0.0.0 Safari/537.36 Edg/114.0.1823.58" version="21.5.2" etag="2_fynNibHr3Pp0UAkm0y" type="github">
  <diagram name="第 1 页" id="tirQQDCIpGKZu7uPUHxC">
    <mxGraphModel>
      <root>
        <mxCell id="0" />
        <mxCell id="1" parent="0" />
      </root>
    </mxGraphModel>
  </diagram>
</mxfile>
